<svg xmlns="http://www.w3.org/2000/svg" viewBox="0 0 576 320"><defs><style>.cls-1{fill:#fff;}.cls-2{opacity:0.8;}</style></defs><title>Deep Sheth</title><g id="AS"><g id="DS_Cut_White" data-name="DS Cut White"><g id="D_Dut" data-name="D Dut"><path class="cls-1" d="M272,160c0,83.95-60.89,152-136,152H0V257L262.9,105.21A167.47,167.47,0,0,1,272,160Z"/><g class="cls-2"><path class="cls-1" d="M249.4,76.05,0,220V8H136C183.35,8,225,35,249.4,76.05Z"/></g></g><g id="S_Cut" data-name="S Cut"><path class="cls-1" d="M576,224c0,53-53.73,96-120,96-56.83,0-104.45-31.61-116.85-74.06l96.25-55.57,83.43-48.17a119.15,119.15,0,0,1,23.41,15.06C563.14,174.52,576,198.06,576,224Z"/><g class="cls-2"><path class="cls-1" d="M566,78,476.9,129.45l-81.71,47.18a108.78,108.78,0,0,1-25.43-19.37C353.68,140.64,344,119.29,344,96c0-53,50.14-96,112-96C510.68,0,556.2,33.58,566,78Z"/></g></g></g></g></svg>